<mxfile host="app.diagrams.net" modified="2023-11-11T01:14:56.819Z" agent="Mozilla/5.0 (Macintosh; Intel Mac OS X 10_15_7) AppleWebKit/537.36 (KHTML, like Gecko) Chrome/119.0.0.0 Safari/537.36" etag="1GR0EZq0GP4g5VR6ppNZ" version="22.1.0" type="github">
  <diagram name="Page-1" id="TN3gV0ctBEEUjeF2iMwN">
    <mxGraphModel dx="853" dy="481" grid="1" gridSize="10" guides="1" tooltips="1" connect="1" arrows="1" fold="1" page="1" pageScale="1" pageWidth="850" pageHeight="1100" math="0" shadow="0">
      <root>
        <mxCell id="0" />
        <mxCell id="1" parent="0" />
        <mxCell id="EXwz4CMsyIcXQ7ayT2he-24" value="" style="rounded=0;whiteSpace=wrap;html=1;fillColor=none;" vertex="1" parent="1">
          <mxGeometry x="280" y="330" width="320" height="80" as="geometry" />
        </mxCell>
        <mxCell id="EXwz4CMsyIcXQ7ayT2he-1" value="Robot" style="rounded=0;whiteSpace=wrap;html=1;" vertex="1" parent="1">
          <mxGeometry x="120" y="260" width="120" height="60" as="geometry" />
        </mxCell>
        <mxCell id="EXwz4CMsyIcXQ7ayT2he-14" style="edgeStyle=orthogonalEdgeStyle;rounded=0;orthogonalLoop=1;jettySize=auto;html=1;exitX=0.5;exitY=1;exitDx=0;exitDy=0;entryX=0.5;entryY=0;entryDx=0;entryDy=0;" edge="1" parent="1" source="EXwz4CMsyIcXQ7ayT2he-2" target="EXwz4CMsyIcXQ7ayT2he-4">
          <mxGeometry relative="1" as="geometry" />
        </mxCell>
        <mxCell id="EXwz4CMsyIcXQ7ayT2he-2" value="Web Client&lt;br&gt;React" style="rounded=0;whiteSpace=wrap;html=1;" vertex="1" parent="1">
          <mxGeometry x="470" y="160" width="120" height="60" as="geometry" />
        </mxCell>
        <mxCell id="EXwz4CMsyIcXQ7ayT2he-10" style="edgeStyle=orthogonalEdgeStyle;rounded=0;orthogonalLoop=1;jettySize=auto;html=1;exitX=0;exitY=0.25;exitDx=0;exitDy=0;entryX=1;entryY=0.5;entryDx=0;entryDy=0;startArrow=classicThin;startFill=1;" edge="1" parent="1" source="EXwz4CMsyIcXQ7ayT2he-3" target="EXwz4CMsyIcXQ7ayT2he-1">
          <mxGeometry relative="1" as="geometry" />
        </mxCell>
        <mxCell id="EXwz4CMsyIcXQ7ayT2he-19" style="edgeStyle=orthogonalEdgeStyle;rounded=0;orthogonalLoop=1;jettySize=auto;html=1;exitX=0;exitY=0.5;exitDx=0;exitDy=0;entryX=1;entryY=0.5;entryDx=0;entryDy=0;startArrow=classicThin;startFill=1;" edge="1" parent="1" source="EXwz4CMsyIcXQ7ayT2he-3" target="EXwz4CMsyIcXQ7ayT2he-17">
          <mxGeometry relative="1" as="geometry" />
        </mxCell>
        <mxCell id="EXwz4CMsyIcXQ7ayT2he-20" style="edgeStyle=orthogonalEdgeStyle;rounded=0;orthogonalLoop=1;jettySize=auto;html=1;exitX=0;exitY=0.75;exitDx=0;exitDy=0;entryX=1;entryY=0.5;entryDx=0;entryDy=0;startArrow=classicThin;startFill=1;" edge="1" parent="1" source="EXwz4CMsyIcXQ7ayT2he-3" target="EXwz4CMsyIcXQ7ayT2he-18">
          <mxGeometry relative="1" as="geometry" />
        </mxCell>
        <mxCell id="EXwz4CMsyIcXQ7ayT2he-23" style="edgeStyle=orthogonalEdgeStyle;rounded=0;orthogonalLoop=1;jettySize=auto;html=1;exitX=0.75;exitY=0;exitDx=0;exitDy=0;entryX=0.25;entryY=1;entryDx=0;entryDy=0;" edge="1" parent="1" source="EXwz4CMsyIcXQ7ayT2he-3" target="EXwz4CMsyIcXQ7ayT2he-2">
          <mxGeometry relative="1" as="geometry">
            <Array as="points">
              <mxPoint x="380" y="260" />
              <mxPoint x="500" y="260" />
            </Array>
          </mxGeometry>
        </mxCell>
        <mxCell id="EXwz4CMsyIcXQ7ayT2he-3" value="Bot Manager&lt;br&gt;Go" style="rounded=0;whiteSpace=wrap;html=1;" vertex="1" parent="1">
          <mxGeometry x="290" y="340" width="120" height="60" as="geometry" />
        </mxCell>
        <mxCell id="EXwz4CMsyIcXQ7ayT2he-15" style="edgeStyle=orthogonalEdgeStyle;rounded=0;orthogonalLoop=1;jettySize=auto;html=1;exitX=0.75;exitY=0;exitDx=0;exitDy=0;entryX=0.75;entryY=1;entryDx=0;entryDy=0;" edge="1" parent="1" source="EXwz4CMsyIcXQ7ayT2he-4" target="EXwz4CMsyIcXQ7ayT2he-2">
          <mxGeometry relative="1" as="geometry" />
        </mxCell>
        <mxCell id="EXwz4CMsyIcXQ7ayT2he-16" style="edgeStyle=orthogonalEdgeStyle;rounded=0;orthogonalLoop=1;jettySize=auto;html=1;exitX=0;exitY=0.5;exitDx=0;exitDy=0;entryX=1;entryY=0.5;entryDx=0;entryDy=0;" edge="1" parent="1" source="EXwz4CMsyIcXQ7ayT2he-4" target="EXwz4CMsyIcXQ7ayT2he-3">
          <mxGeometry relative="1" as="geometry" />
        </mxCell>
        <mxCell id="EXwz4CMsyIcXQ7ayT2he-4" value="Engine Backend&lt;br&gt;Go" style="rounded=0;whiteSpace=wrap;html=1;" vertex="1" parent="1">
          <mxGeometry x="470" y="340" width="120" height="60" as="geometry" />
        </mxCell>
        <mxCell id="EXwz4CMsyIcXQ7ayT2he-17" value="Robot" style="rounded=0;whiteSpace=wrap;html=1;" vertex="1" parent="1">
          <mxGeometry x="120" y="340" width="120" height="60" as="geometry" />
        </mxCell>
        <mxCell id="EXwz4CMsyIcXQ7ayT2he-18" value="Robot" style="rounded=0;whiteSpace=wrap;html=1;" vertex="1" parent="1">
          <mxGeometry x="120" y="420" width="120" height="60" as="geometry" />
        </mxCell>
        <mxCell id="EXwz4CMsyIcXQ7ayT2he-22" value="Website Backend&lt;br&gt;Express.js" style="text;strokeColor=none;fillColor=none;align=center;verticalAlign=middle;spacingLeft=4;spacingRight=4;overflow=hidden;points=[[0,0.5],[1,0.5]];portConstraint=eastwest;rotatable=0;whiteSpace=wrap;html=1;" vertex="1" parent="1">
          <mxGeometry x="400" y="281" width="120" height="30" as="geometry" />
        </mxCell>
      </root>
    </mxGraphModel>
  </diagram>
</mxfile>
